<svg width="54" height="76" viewBox="0 0 54 76" fill="none" xmlns="http://www.w3.org/2000/svg">
<path d="M23.4962 27.5919L23.9084 26.952L22.1096 24.8816C23.287 23.1506 25.6654 21.5278 25.4448 21.9832C25.2242 22.4385 24.3117 23.8304 24.3956 24.8816C24.8718 25.4612 25.1435 25.6382 25.6322 25.8227H28.5926C29.0807 25.4582 29.2964 25.2518 29.5295 24.8816C29.7364 24.0345 29.0387 22.9463 28.5926 21.9832C28.1466 21.0201 31.9159 24.7107 31.8904 24.8816L29.9792 26.952L30.5788 27.5919L37.5864 22.5102C39.0327 11.9949 37.7045 7.60138 35.0007 0C39.69 7.67471 41.9948 12.212 40.5468 24.317C36.9117 25.5916 34.8679 26.6329 31.2158 28.8717L31.5906 29.3234C36.8304 28.8382 39.9677 28.7041 45.9431 28.7211C47.1103 23.3857 46.3401 19.9373 44.8189 13.7395C48.1746 19.3664 49.6175 22.8298 48.6412 31.5067C42.2838 30.6616 38.5808 30.4345 31.5906 30.7162L31.2158 31.5067C42.0897 32.5808 46.4787 33.8426 54 36.212C51.5568 56.3725 46.2269 63.8037 35.6378 76C42.7092 64.8674 47.1985 59.5937 48.7536 38.2823C43.0118 35.8709 39.2743 34.5803 30.8786 32.4854L30.6537 33.05C36.8458 35.786 40.0518 37.4103 45.4185 40.4279C44.2682 55.8141 41.7685 60.6773 37.0618 68.8479C39.6354 61.9791 41.6006 58.8009 42.1208 41.2561C37.9844 38.2951 35.4848 36.7426 30.3164 34.0664L29.9792 34.2546C32.6447 36.038 33.8923 37.0587 36.05 38.8846V47.1659C32.7731 52.5696 30.7413 54.2745 26.9813 56.3883C22.879 53.8099 20.746 52.0673 17.95 47.1659V38.8846C20.2541 37.0095 21.5584 35.9807 23.9459 34.2546L23.721 34.0664C18.8808 36.5318 16.3507 38.2801 11.7668 41.2561C11.5738 53.3361 13.2305 59.1379 17.0507 68.9985C12.2683 60.7946 9.79486 55.7785 8.58154 40.4279C14.0438 37.3522 17.2653 35.7434 23.3088 33.05L23.0465 32.4854C15.55 34.2446 11.6728 35.5399 5.13393 38.207C6.30152 53.41 8.64025 61.7432 18.1749 76C8.5417 65.4931 3.44194 59.0028 0 36.1743C8.2891 33.72 13.2333 32.7017 22.5593 31.5067L22.2595 30.7162C15.1925 30.4863 11.4519 30.6698 5.13393 31.5067C4.51562 22.369 5.55447 19.1254 9.18112 13.7395C6.97983 21.8022 7.12298 24.5188 7.86953 28.7211C13.4255 28.5982 16.5733 28.7121 22.2595 29.3234L22.5593 28.7211C17.2487 25.725 15.0662 24.6274 13.4157 24.317C12.4131 13.7588 13.8171 8.65035 19.1492 0C14.9058 10.3313 15.6896 14.4919 16.3012 22.5102C18.9677 24.5459 20.5571 25.615 23.2706 27.4401L23.4962 27.5919Z" fill="#EDF1F7"/>
</svg>
